<?xml version="1.0" encoding="UTF-8"?><svg id="a" xmlns="http://www.w3.org/2000/svg" viewBox="0 0 720 187.63"><defs><style>.f{fill:#4f4e3c;}.g{fill:#b3763b;}</style></defs><path class="f" d="M276.66,161.08v1.52c0,1.24-.72,1.92-1.96,1.92h-6.49v20.75c0,1.24-.68,1.92-1.92,1.92h-2.4c-1.24,0-1.92-.68-1.92-1.92v-20.75h-6.41c-1.24,0-1.92-.68-1.92-1.92v-1.52c0-1.24.68-1.92,1.92-1.92h19.14c1.24,0,1.96.68,1.96,1.92Z"/><path class="f" d="M293.36,177.18h-3.72v8.09c0,1.24-.68,1.92-1.92,1.92h-2.48c-1.24,0-1.96-.68-1.96-1.92v-24.19c0-1.24.72-1.92,1.96-1.92h10.77c5.97,0,9.29,4.25,9.29,9.33,0,4.13-2.28,7.37-6.21,8.37.32,2.84,1.92,5.69,4.25,5.69.84,0,1.32-.08,1.84-.32,1.16-.4,1.64-.16,2.16.92l.36.8c.52,1.08.4,2-.6,2.56-1.4.72-3.04,1.12-4.81,1.12-6.93,0-8.61-7.29-8.93-10.45ZM295.12,172.61c2.28,0,3.72-1.76,3.72-4.01s-1.48-4.09-3.72-4.09h-5.49v8.09h5.49Z"/><path class="f" d="M321.17,164.52v6.33h9.05c1.24,0,1.92.68,1.92,1.92v1.08c0,1.24-.68,1.96-1.92,1.96h-9.05v6.01h10.69c1.24,0,1.92.68,1.92,1.92v1.52c0,1.24-.68,1.92-1.92,1.92h-15.1c-1.24,0-1.96-.68-1.96-1.92v-24.19c0-1.24.72-1.92,1.96-1.92h15.1c1.24,0,1.92.68,1.92,1.92v1.52c0,1.24-.68,1.92-1.92,1.92h-10.69Z"/><path class="f" d="M348.66,164.52v6.33h9.05c1.24,0,1.92.68,1.92,1.92v1.08c0,1.24-.68,1.96-1.92,1.96h-9.05v6.01h10.69c1.24,0,1.92.68,1.92,1.92v1.52c0,1.24-.68,1.92-1.92,1.92h-15.1c-1.24,0-1.96-.68-1.96-1.92v-24.19c0-1.24.72-1.92,1.96-1.92h15.1c1.24,0,1.92.68,1.92,1.92v1.52c0,1.24-.68,1.92-1.92,1.92h-10.69Z"/><path class="f" d="M382.54,181.58c-.52-1.2.12-2.04,1.36-2.36l1.72-.4c1.12-.28,1.72.2,2.36,1.24.92,1.48,2.68,2.48,5.05,2.48,2.72,0,4.53-1.2,4.53-3.04,0-1.4-1.08-2.52-3.2-3.24l-3.64-1.32c-3.32-1.08-7.41-3.56-7.45-7.89,0-5.13,4.45-8.33,9.93-8.33,4.37,0,7.45,1.92,8.97,5.13.6,1.16.04,2.08-1.16,2.44l-1.6.44c-1.12.32-1.8-.12-2.48-1.08-.72-1.2-1.96-1.84-3.64-1.84-2,0-3.72,1-3.72,2.84,0,1,.44,2.08,2.92,3l3.64,1.32c5.49,1.84,7.53,4.73,7.61,8.25,0,5.49-4.69,8.41-10.65,8.41-5.25,0-9.05-2.32-10.53-6.05Z"/><path class="f" d="M418.02,164.52v6.33h9.05c1.24,0,1.92.68,1.92,1.92v1.08c0,1.24-.68,1.96-1.92,1.96h-9.05v6.01h10.69c1.24,0,1.92.68,1.92,1.92v1.52c0,1.24-.68,1.92-1.92,1.92h-15.1c-1.24,0-1.96-.68-1.96-1.92v-24.19c0-1.24.72-1.92,1.96-1.92h15.1c1.24,0,1.92.68,1.92,1.92v1.52c0,1.24-.68,1.92-1.92,1.92h-10.69Z"/><path class="f" d="M449.22,177.18h-3.72v8.09c0,1.24-.68,1.92-1.92,1.92h-2.48c-1.24,0-1.96-.68-1.96-1.92v-24.19c0-1.24.72-1.92,1.96-1.92h10.77c5.97,0,9.29,4.25,9.29,9.33,0,4.13-2.28,7.37-6.21,8.37.32,2.84,1.92,5.69,4.25,5.69.84,0,1.32-.08,1.84-.32,1.16-.4,1.64-.16,2.16.92l.36.8c.52,1.08.4,2-.6,2.56-1.4.72-3.04,1.12-4.81,1.12-6.93,0-8.61-7.29-8.93-10.45ZM450.98,172.61c2.28,0,3.72-1.76,3.72-4.01s-1.48-4.09-3.72-4.09h-5.49v8.09h5.49Z"/><path class="f" d="M476.13,185.63l-8.53-24.27c-.48-1.32.12-2.2,1.52-2.2h2.72c1.12,0,1.84.52,2.16,1.64l5.65,18.1,5.61-18.1c.32-1.12,1.04-1.64,2.16-1.64h2.68c1.44,0,2.04.88,1.56,2.2l-8.61,24.27c-.36,1.08-1.08,1.56-2.16,1.56h-2.56c-1.08,0-1.8-.48-2.2-1.56Z"/><path class="f" d="M498.66,185.27v-24.19c0-1.24.72-1.92,1.96-1.92h2.48c1.24,0,1.92.68,1.92,1.92v24.19c0,1.24-.68,1.92-1.92,1.92h-2.48c-1.24,0-1.96-.68-1.96-1.92Z"/><path class="f" d="M512.88,173.17c0-7.81,5.89-14.46,15.38-14.46,3.6,0,6.25,1.04,8.57,2.64,1,.68,1.12,1.68.4,2.68l-1,1.24c-.72,1-1.6,1-2.68.36-1.6-.92-3.52-1.4-5.29-1.4-5.61,0-9.01,4-9.01,8.93s3.4,8.93,9.01,8.93c1.76,0,3.68-.48,5.29-1.4,1.08-.64,1.96-.64,2.68.36l1,1.24c.72,1.04.68,1.92-.2,2.56-2.36,1.68-5.05,2.76-8.77,2.76-9.49,0-15.38-6.65-15.38-14.46Z"/><path class="f" d="M551.6,164.52v6.33h9.05c1.24,0,1.92.68,1.92,1.92v1.08c0,1.24-.68,1.96-1.92,1.96h-9.05v6.01h10.69c1.24,0,1.92.68,1.92,1.92v1.52c0,1.24-.68,1.92-1.92,1.92h-15.1c-1.24,0-1.96-.68-1.96-1.92v-24.19c0-1.24.72-1.92,1.96-1.92h15.1c1.24,0,1.92.68,1.92,1.92v1.52c0,1.24-.68,1.92-1.92,1.92h-10.69Z"/><path class="f" d="M256.13,137.46l4.42-48.4c.25-3.09,2.09-4.76,5.17-4.76h7.76c2.84,0,4.67,1.25,5.76,3.92l11.68,29.29,11.68-29.29c1.09-2.67,2.92-3.92,5.76-3.92h7.76c3.09,0,4.92,1.67,5.17,4.76l4.42,48.4c.33,3.42-1.42,5.26-4.76,5.26h-7.34c-3.17,0-5.01-1.67-5.26-4.76l-1.75-21.86-8.43,22.11c-1,2.75-2.92,3.92-5.76,3.92h-3c-2.84,0-4.76-1.17-5.76-3.92l-8.43-22.11-1.75,21.86c-.25,3.09-2.09,4.76-5.26,4.76h-7.34c-3.34,0-5.09-1.84-4.76-5.26Z"/><path class="f" d="M331.55,136.96l18.86-48.73c1-2.67,2.92-3.92,5.76-3.92h7.09c2.84,0,4.67,1.25,5.76,3.92l19.27,48.73c1.33,3.42-.17,5.76-3.92,5.76h-8.09c-2.84,0-4.76-1.25-5.76-3.92l-2.25-5.84h-17.36l-2.09,5.76c-1,2.67-2.84,4-5.67,4h-7.68c-3.67,0-5.26-2.34-3.92-5.76ZM365.35,119.27l-5.59-16.44-6.09,16.44h11.68Z"/><path class="f" d="M394.02,137.46l4.42-48.4c.25-3.09,2.09-4.76,5.17-4.76h7.76c2.84,0,4.67,1.25,5.76,3.92l11.68,29.29,11.68-29.29c1.09-2.67,2.92-3.92,5.76-3.92h7.76c3.09,0,4.92,1.67,5.17,4.76l4.42,48.4c.33,3.42-1.42,5.26-4.76,5.26h-7.34c-3.17,0-5.01-1.67-5.26-4.76l-1.75-21.86-8.43,22.11c-1,2.75-2.92,3.92-5.76,3.92h-3c-2.84,0-4.76-1.17-5.76-3.92l-8.43-22.11-1.75,21.86c-.25,3.09-2.09,4.76-5.26,4.76h-7.34c-3.34,0-5.09-1.84-4.76-5.26Z"/><path class="f" d="M471.62,137.46l4.42-48.4c.25-3.09,2.09-4.76,5.17-4.76h7.76c2.84,0,4.67,1.25,5.76,3.92l11.68,29.29,11.68-29.29c1.09-2.67,2.92-3.92,5.76-3.92h7.76c3.09,0,4.92,1.67,5.17,4.76l4.42,48.4c.33,3.42-1.42,5.26-4.76,5.26h-7.34c-3.17,0-5.01-1.67-5.26-4.76l-1.75-21.86-8.43,22.11c-1,2.75-2.92,3.92-5.76,3.92h-3c-2.84,0-4.76-1.17-5.76-3.92l-8.43-22.11-1.75,21.86c-.25,3.09-2.09,4.76-5.26,4.76h-7.34c-3.34,0-5.09-1.84-4.76-5.26Z"/><path class="f" d="M547.36,113.51c0-16.27,11.85-30.12,31.54-30.12s31.54,13.85,31.54,30.12-11.85,30.12-31.54,30.12-31.54-13.85-31.54-30.12ZM592.92,113.51c0-8.18-5.09-15.1-14.02-15.1s-14.02,6.93-14.02,15.1,5.09,15.1,14.02,15.1,14.02-6.93,14.02-15.1Z"/><path class="f" d="M661.63,89.32v5.01c0,3.25-1.75,5.01-5.01,5.01h-10.85v38.38c0,3.25-1.75,5.01-5.01,5.01h-7.18c-3.25,0-5.01-1.75-5.01-5.01v-38.38h-10.51c-3.25,0-5.01-1.75-5.01-5.01v-5.01c0-3.25,1.75-5.01,5.01-5.01h38.55c3.25,0,5.01,1.75,5.01,5.01Z"/><path class="f" d="M667.85,137.71v-48.4c0-3.25,1.75-5.01,5.01-5.01h7.51c3.25,0,5.01,1.75,5.01,5.01v18.27h17.11v-18.27c0-3.25,1.75-5.01,5.01-5.01h7.51c3.25,0,5.01,1.75,5.01,5.01v48.4c0,3.25-1.75,5.01-5.01,5.01h-7.51c-3.25,0-5.01-1.75-5.01-5.01v-15.85h-17.11v15.85c0,3.25-1.75,5.01-5.01,5.01h-7.51c-3.25,0-5.01-1.75-5.01-5.01Z"/><path class="g" d="M208.48,83.39v-41.69c0-11.51-9.34-20.85-20.85-20.85,5.75,0,10.98-2.34,14.73-6.12,3.78-3.75,6.12-8.98,6.12-14.73h-20.85c-5.74,0-10.98,2.34-14.73,6.12-3.78,3.75-6.12,8.98-6.12,14.73V0c-5.74,0-10.98,2.34-14.73,6.12-3.77,3.75-6.11,8.98-6.11,14.73h-62.54C37.34,20.85,0,58.19,0,104.24v83.39h41.69c0-11.51,4.68-21.94,12.21-29.49,7.55-7.53,17.98-12.21,29.49-12.21v41.7h41.69v-52.12c0-17.33,14.01-31.34,31.34-31.34v.07c17.4.05,31.2,14.8,31.2,32.2v19.92c0,6.09-5.23,10.96-11.44,10.38-5.42-.51-9.41-5.38-9.41-10.84v-20.38c0-5.76-4.67-10.43-10.42-10.43-2.88,0-5.48,1.17-7.37,3.05-1.89,1.89-3.05,4.49-3.05,7.37v19.97c0,16.84,12.95,31.34,29.79,32.11,17.95.83,32.75-13.46,32.75-31.23v-52.12c5.74,0,10.98-2.34,14.73-6.11,3.78-3.75,6.12-8.99,6.12-14.73h-20.85ZM125.09,83.39c-11.51,0-21.93-4.68-29.49-12.2-7.53-7.56-12.2-17.98-12.2-29.49h41.69v41.69ZM166.7,74.32c-.58,4.65-4.34,8.41-8.99,8.98-6.83.85-12.54-4.86-11.69-11.69.58-4.65,4.34-8.41,8.98-8.98,6.83-.85,12.55,4.86,11.7,11.69Z"/></svg>